<?xml version="1.0" standalone="no"?><!DOCTYPE svg PUBLIC "-//W3C//DTD SVG 1.1//EN" "http://www.w3.org/Graphics/SVG/1.1/DTD/svg11.dtd"><svg t="1619781469297" class="icon" viewBox="0 0 1024 1024" version="1.1" xmlns="http://www.w3.org/2000/svg" p-id="2834" width="32" height="32" xmlns:xlink="http://www.w3.org/1999/xlink"><defs><style type="text/css"></style></defs><path d="M512 64c247.4 0 448 200.6 448 448S759.4 960 512 960 64 759.4 64 512 264.6 64 512 64z m0 72c-207.635 0-376 168.365-376 376s168.365 376 376 376 376-168.365 376-376-168.365-376-376-376z m-88.908 472.885c3.675 0 6.825 2.8 7.087 6.475 3.238 43.312 39.636 77.525 83.821 77.525 44.185 0 80.496-34.213 83.82-77.525 0.258-3.595 3.278-6.353 6.85-6.471l0.238-0.004h42.085c4.025 0 7.175 3.325 7 7.35-3.85 73.762-65.184 132.65-139.993 132.65s-136.143-58.888-139.993-132.65c-0.172-3.945 2.85-7.217 6.76-7.346l0.24-0.004h42.085zM668 390c23.196 0 42 18.804 42 42s-18.804 42-42 42-42-18.804-42-42 18.804-42 42-42z m-309 0c23.196 0 42 18.804 42 42s-18.804 42-42 42-42-18.804-42-42 18.804-42 42-42z" fill="#2c2c2c" p-id="2835"></path></svg>