<?xml version="1.0" encoding="utf-8"?>
<!-- Generator: Adobe Illustrator 24.2.0, SVG Export Plug-In . SVG Version: 6.00 Build 0)  -->
<svg version="1.1" id="图层_1" xmlns="http://www.w3.org/2000/svg" xmlns:xlink="http://www.w3.org/1999/xlink" x="0px" y="0px"
	 viewBox="0 0 32 32" style="enable-background:new 0 0 32 32;" xml:space="preserve">
<path d="M26.9,7.9c-1.4-1.4-3.2-2.2-5.2-2.2c-1.9,0-3.8,0.8-5.2,2.2L16,8.5l-0.5-0.5c-1.4-1.4-3.2-2.2-5.2-2.2
	c-1.9,0-3.8,0.8-5.2,2.2c-2.9,2.9-2.9,7.6,0,10.5l10.1,10.3c0.2,0.2,0.5,0.3,0.7,0.3s0.5-0.1,0.7-0.3l10.1-10.3
	c1.4-1.4,2.1-3.3,2.1-5.3S28.3,9.3,26.9,7.9z"/>
</svg>
