<svg width="6" height="6" viewBox="0 0 6 6" fill="none" xmlns="http://www.w3.org/2000/svg">
<g clip-path="url(#clip0)">
<path d="M5.43525 3.98549L3.72601 3L5.43525 2.0145C5.60625 1.92825 5.69175 1.67175 5.56275 1.5C5.478 1.32825 5.2215 1.24275 5.0505 1.37175L3.34201 2.35725V0.385502C3.38476 0.172502 3.21376 2.96168e-06 3.00001 2.96168e-06C2.94936 -0.000196134 2.89918 0.00964469 2.85236 0.0289566C2.80554 0.0482685 2.76302 0.0766685 2.72724 0.112515C2.69146 0.148362 2.66315 0.190944 2.64393 0.2378C2.6247 0.284656 2.61496 0.334858 2.61526 0.385502V2.35725L0.907514 1.37175C0.778514 1.24275 0.522015 1.3275 0.436515 1.5C0.351015 1.67175 0.393765 1.92825 0.564764 2.0145L2.27401 3L0.564764 3.98549C0.393765 4.07249 0.308265 4.32824 0.437265 4.49999C0.474532 4.55559 0.525531 4.60062 0.58532 4.63071C0.645108 4.6608 0.711656 4.67493 0.778514 4.67174C0.821264 4.67174 0.906014 4.67174 0.949513 4.62824L2.65801 3.64274V5.61449C2.61526 5.82749 2.78626 5.99999 3.00001 5.99999C3.05065 6.00019 3.10084 5.99035 3.14765 5.97103C3.19447 5.95172 3.237 5.92332 3.27278 5.88748C3.30855 5.85163 3.33687 5.80905 3.35609 5.76219C3.37531 5.71533 3.38506 5.66513 3.38476 5.61449V3.64274L5.0925 4.62824C5.13525 4.67174 5.22075 4.67174 5.2635 4.67174C5.391 4.67174 5.52 4.58549 5.6055 4.49999C5.64825 4.32824 5.6055 4.07174 5.4345 3.98549H5.43525Z" fill="#FB4141"/>
</g>
<defs>
<clipPath id="clip0">
<rect width="6" height="6" fill="white"/>
</clipPath>
</defs>
</svg>
