<svg width="24" height="24" viewBox="0 0 24 24" fill="none" xmlns="http://www.w3.org/2000/svg">
<path d="M21.6914 19.4977C21.6914 19.7719 21.6445 20.0251 21.5531 20.2641C21.4594 20.5009 21.3281 20.7094 21.157 20.8899C20.9859 21.0704 20.7867 21.211 20.557 21.3094C20.3297 21.4102 20.0789 21.4594 19.8094 21.4594H4.28672C4.01484 21.4594 3.75937 21.4102 3.51797 21.3094C3.27656 21.2087 3.06093 21.068 2.87578 20.8899C2.69062 20.7094 2.54531 20.5009 2.4375 20.2641C2.32968 20.0274 2.27812 19.7719 2.27812 19.4977V8.73757C2.27812 8.19148 2.46797 7.72742 2.84531 7.34773C3.22265 6.9657 3.68203 6.77585 4.22343 6.77585H19.7461C20.2875 6.77585 20.7469 6.9657 21.1242 7.34773C21.5016 7.72976 21.6914 8.19148 21.6914 8.73757V11.6696H16.8375C16.2961 11.6696 15.8367 11.8571 15.4594 12.2298C15.082 12.6024 14.8922 13.0641 14.8922 13.6102C14.9062 13.9829 14.9859 14.3157 15.1266 14.6016C15.2414 14.8454 15.4289 15.068 15.6937 15.2696C15.9586 15.4712 16.3383 15.5719 16.8375 15.5719H21.6914V19.4977V19.4977ZM18.7828 5.7821H9.07734C9.84609 5.37898 10.575 4.99226 11.2594 4.61726C11.857 4.30085 12.45 3.98445 13.0336 3.66804C13.6172 3.35164 14.0742 3.10789 14.4023 2.93445C14.9016 2.66023 15.3469 2.53601 15.7383 2.5571C16.1297 2.5782 16.4625 2.64617 16.732 2.76101C17.0461 2.91804 17.3156 3.12664 17.5453 3.38679L18.7828 5.7821ZM15.8766 13.6102C15.8766 13.336 15.9703 13.1063 16.1555 12.9212C16.3406 12.7337 16.568 12.6399 16.8398 12.6399C17.1117 12.6399 17.3391 12.7337 17.5242 12.9212C17.7094 13.1087 17.8031 13.3384 17.8031 13.6102C17.8031 13.8844 17.7094 14.1165 17.5242 14.311C17.3391 14.5055 17.1117 14.6016 16.8398 14.6016C16.568 14.6016 16.3406 14.5055 16.1555 14.311C15.968 14.1165 15.8766 13.8844 15.8766 13.6102Z" fill="#47B2FE"/>
</svg>
