<svg width="6" height="6" fill="none" xmlns="http://www.w3.org/2000/svg"><g clip-path="url(#clip0)"><path d="M5.66 2.67H3.8l1.32-1.32c.06-.06.1-.15.1-.24 0-.08-.04-.17-.1-.23-.06-.06-.14-.1-.23-.1s-.18.04-.24.1L3.34 2.2V.33c0-.08-.04-.17-.1-.23C3.18.04 3.1 0 3 0c-.08 0-.16.04-.23.1-.06.06-.09.15-.09.23V2.2L1.36.88c-.06-.06-.14-.1-.23-.1S.96.82.9.88c-.07.06-.1.15-.1.24 0 .08.03.17.1.23l1.3 1.32H.35c-.09 0-.17.03-.24.09-.06.07-.09.15-.09.24s.03.17.09.24c.07.06.15.09.24.09H2.2L.9 4.65c-.04.03-.06.07-.08.11-.02.04-.02.08-.02.12 0 .05 0 .09.02.13.02.04.04.08.08.11.02.03.06.06.1.08l.13.02.12-.02c.05-.02.08-.05.11-.08L2.67 3.8v1.87c0 .09.03.17.1.23.06.06.15.1.23.1.1 0 .18-.04.24-.1.06-.06.1-.14.1-.23V3.8l1.31 1.32.11.08.12.02.13-.02.11-.08c.03-.02.05-.06.08-.11l.02-.12-.02-.13-.08-.11L3.8 3.34h1.86c.04 0 .09-.01.13-.03.04-.01.08-.04.11-.07l.07-.11C5.98 3.09 6 3.05 6 3l-.03-.12-.07-.11c-.03-.03-.07-.06-.11-.07-.04-.02-.09-.03-.13-.03z" fill="#FB4141"/></g><defs><clipPath id="clip0"><path fill="#fff" d="M0 0h6v6H0z"/></clipPath></defs></svg>