<svg width="6" height="6" viewBox="0 0 6 6" fill="none" xmlns="http://www.w3.org/2000/svg"><g clip-path="url(#clip0)"><path d="M5.664 2.666H3.81l1.313-1.317a.333.333 0 0 0-.235-.568.331.331 0 0 0-.235.098L3.34 2.195V.335A.333.333 0 0 0 3.008 0a.331.331 0 0 0-.332.333v1.86L1.364.88a.332.332 0 0 0-.567.236c0 .089.035.173.097.236l1.313 1.316H.349A.331.331 0 0 0 .017 3a.333.333 0 0 0 .332.333h1.855L.89 4.649a.333.333 0 0 0 .47.47l1.312-1.314v1.862A.333.333 0 0 0 3.005 6a.331.331 0 0 0 .332-.333v-1.86l1.312 1.316a.332.332 0 1 0 .47-.47L3.806 3.335h1.856a.331.331 0 0 0 .331-.333.334.334 0 0 0-.332-.333l.003-.004z" fill="#FB4141"/></g><defs><clipPath id="clip0"><path fill="#fff" d="M0 0h6v6H0z"/></clipPath></defs></svg>