<?xml version="1.0" standalone="no"?><!DOCTYPE svg PUBLIC "-//W3C//DTD SVG 1.1//EN" "http://www.w3.org/Graphics/SVG/1.1/DTD/svg11.dtd"><svg t="1620886503130" class="icon" viewBox="0 0 1024 1024" version="1.1" xmlns="http://www.w3.org/2000/svg" p-id="7687" width="32" height="32" xmlns:xlink="http://www.w3.org/1999/xlink"><defs><style type="text/css"></style></defs><path d="M192.725333 469.333333H426.666667v85.333334h170.666666v-85.333334h233.984l-101.248-236.501333a86.314667 86.314667 0 0 0-12.8-19.498667l-411.093333-0.170666c-3.285333 3.541333-7.381333 9.813333-10.965333 16.981333L192.725333 469.333333zM853.333333 554.666667h-170.666666a85.333333 85.333333 0 0 1-85.333334 85.333333h-170.666666a85.333333 85.333333 0 0 1-85.333334-85.333333H170.666667v256h682.666666v-256z m85.333334 256a85.333333 85.333333 0 0 1-85.333334 85.333333H170.666667a85.333333 85.333333 0 0 1-85.333334-85.333333v-307.413334l3.413334-8.064L217.728 194.56C236.928 155.349333 261.205333 131.114667 298.666667 128h426.666666l5.546667 0.384c32.170667 4.224 55.68 27.733333 76.373333 68.138667L938.666667 503.253333V810.666667z" p-id="7688" fill="#515151"></path></svg>