<?xml version="1.0" standalone="no"?><!DOCTYPE svg PUBLIC "-//W3C//DTD SVG 1.1//EN" "http://www.w3.org/Graphics/SVG/1.1/DTD/svg11.dtd"><svg t="1607149692473" class="icon" viewBox="0 0 1024 1024" version="1.1" xmlns="http://www.w3.org/2000/svg" p-id="2241" xmlns:xlink="http://www.w3.org/1999/xlink" width="32" height="32"><defs><style type="text/css"></style></defs><path d="M997.419 420.352a16.853 16.853 0 0 0-8.832-28.16l-302.848-56.747a17.92 17.92 0 0 1-12.459-9.173L527.19 53.888A17.067 17.067 0 0 0 512 45.269a17.067 17.067 0 0 0-15.19 8.619L350.72 326.272a17.92 17.92 0 0 1-12.459 9.173L35.413 392.192a16.853 16.853 0 0 0-8.832 28.16L246.87 651.008c3.883 4.096 5.718 9.813 4.864 15.445l-50.346 308.48a16.555 16.555 0 0 0 23.296 17.75l279.68-135.168a17.621 17.621 0 0 1 15.317 0l279.637 135.168a16.555 16.555 0 0 0 23.296-17.707l-51.285-314.283 226.09-240.341z" fill="#FFCD00" p-id="2242"></path><path d="M563.883 491.904c-4.95-4.139-121.43-44.117-299.691-17.493a11.52 11.52 0 0 1-8.832-2.176c-0.768 4.352 3.925 7.808 9.813 8.234 125.91 8.747 196.31 60.16 218.283 78.208 44.587-31.658 78.635-55.381 79.915-56.362 4.01-3.115 4.053-7.467 0.512-10.411m148.394-32.768c-45.653 38.443-175.232 127.872-220.458 162.39-5.334 4.053-3.456 10.325 2.304 12.5 18.645 7.126 39.637 13.1 61.696 18.006l174.805-166.528c13.739-14.421 5.717-31.915-11.392-35.755a22.059 22.059 0 0 1-6.955 9.387m133.547 192.853l-0.085 0.086c-77.056 32.512-264.235 87.082-494.208 79.104a541.013 541.013 0 0 1-70.827-6.912 21.077 21.077 0 0 1-6.016-2.006c-11.563 13.355 2.261 23.467 51.584 33.451 144.256 29.184 312.917 42.581 454.315 33.536l-9.728-59.435c47.829-34.346 71.082-64 73.856-68.437 3.2-5.035 1.152-9.387 1.152-9.387" fill="#F1A308" p-id="2243"></path><path d="M847.701 659.67c-58.325 5.631-236.202 4.053-341.12-36.267-5.589-2.134-7.466-8.278-2.346-12.246 43.776-33.706 169.13-121.088 213.333-158.677 8.619-7.296 10.88-16.896 0.427-24.661-20.096-14.891-91.008-39.595-173.056-40.278-117.462-0.938-232.875 32.299-283.478 59.179-12.032 6.4-4.821 23.21 7.467 21.333 179.627-27.605 296.96 13.952 301.952 18.219 3.584 3.072 3.413 7.552-0.512 10.667-3.328 2.56-218.027 156.8-282.496 211.2-10.155 8.576-7.51 26.538 9.13 29.568 15.489 2.858 43.094 5.973 70.827 6.869 229.974 7.893 417.152-46.208 494.251-78.336 0 0-2.39-7.723-14.379-6.57" fill="#FFFFFF" p-id="2244"></path></svg>