<?xml version="1.0" standalone="no"?><!DOCTYPE svg PUBLIC "-//W3C//DTD SVG 1.1//EN" "http://www.w3.org/Graphics/SVG/1.1/DTD/svg11.dtd"><svg t="1607149287989" class="icon" viewBox="0 0 1024 1024" version="1.1" xmlns="http://www.w3.org/2000/svg" p-id="3585" xmlns:xlink="http://www.w3.org/1999/xlink" width="32" height="32"><defs><style type="text/css"></style></defs><path d="M357.837682 545.250676c-76.125874 4.845025-94.722703 38.338362-94.722703 69.155263 0 30.817924 18.796487 73.660358 108.258467 73.660358 89.440479 0 165.366695-90.201225 165.366695-90.201226s-102.79911-57.457373-178.902459-52.614395z" fill="#1296db" p-id="3586"></path><path d="M512.268258 64.433103c-247.183323 0-447.569968 200.380501-447.569968 447.569969 0 247.183323 200.385621 447.564849 447.569968 447.564848s447.569968-200.380501 447.569968-447.564848c0-247.190491-200.386645-447.569968-447.569968-447.569969z m337.55349 683.248917L596.319004 627.512695s-47.941383 53.017806-96.831907 76.352152c-48.896668 23.334347-105.038348 37.852017-165.836658 23.517622-60.798311-14.340538-103.94279-53.217464-96.528837-124.994896 7.428288-71.782552 84.158254-96.53498 147.265427-96.53498 63.128674 0 182.87923 40.900123 182.879229 40.900123s10.061721-22.545955 19.838802-48.324316c9.769914-25.772218 12.542595-46.484394 12.542595-46.484394H344.640824V426.386805H468.529925v-48.890525l-154.446958 1.110916v-32.224743H468.529925v-73.335786h81.116291v73.335786h165.566352v32.224743l-165.566352 1.110916v45.556753l136.70712 1.110916s-2.470635 25.557202-19.799894 72.041595c-17.312877 46.484394-33.56808 70.190411-33.56808 70.190411l265.246708 87.034348s-9.522134 24.893724-20.981458 46.716816c-11.475707 21.816949-27.428864 45.313069-27.428864 45.313069z" fill="#1296db" p-id="3587"></path></svg>