<?xml version="1.0" standalone="no"?><!DOCTYPE svg PUBLIC "-//W3C//DTD SVG 1.1//EN" "http://www.w3.org/Graphics/SVG/1.1/DTD/svg11.dtd"><svg t="1617282132670" class="icon" viewBox="0 0 1024 1024" version="1.1" xmlns="http://www.w3.org/2000/svg" p-id="6561" xmlns:xlink="http://www.w3.org/1999/xlink" width="90" height="90"><defs><style type="text/css"></style></defs><path d="M640 625.6V192c0-70.6-57.4-128-128-128s-128 57.4-128 128v433.6c-40.2 36.1-64 87.9-64 142.4 0 105.9 86.1 192 192 192s192-86.1 192-192c0-54.6-23.8-106.4-64-142.4zM512 896c-70.7 0-128-57.3-128-128 0-47.3 25.9-88.1 64-110.3V544h32v-32h-32v-64h64v-32h-64v-64h32v-32h-32v-64h64v-32h-64v-32c0-35.4 28.6-64 64-64 35.3 0 64 28.6 64 64v465.7c38.1 22.2 64 63 64 110.3 0 70.7-57.3 128-128 128z" p-id="6562"></path></svg>