<?xml version="1.0" standalone="no"?><!DOCTYPE svg PUBLIC "-//W3C//DTD SVG 1.1//EN" "http://www.w3.org/Graphics/SVG/1.1/DTD/svg11.dtd"><svg t="1627553783689" class="icon" viewBox="0 0 1280 1024" version="1.1" xmlns="http://www.w3.org/2000/svg" p-id="2851" xmlns:xlink="http://www.w3.org/1999/xlink" width="250" height="200"><defs><style type="text/css">@font-face { font-family: feedback-iconfont; src: url("//at.alicdn.com/t/font_1031158_1uhr8ri0pk5.eot?#iefix") format("embedded-opentype"), url("//at.alicdn.com/t/font_1031158_1uhr8ri0pk5.woff2") format("woff2"), url("//at.alicdn.com/t/font_1031158_1uhr8ri0pk5.woff") format("woff"), url("//at.alicdn.com/t/font_1031158_1uhr8ri0pk5.ttf") format("truetype"), url("//at.alicdn.com/t/font_1031158_1uhr8ri0pk5.svg#iconfont") format("svg"); }
</style></defs><path d="M1248 704h-32V487.8c0-25.4-10.2-49.8-28.2-67.8L988 220.2c-18-18-42.4-28.2-67.8-28.2H832V96c0-53-43-96-96-96H96C43 0 0 43 0 96v640c0 53 43 96 96 96h32c0 106 86 192 192 192s192-86 192-192h256c0 106 86 192 192 192s192-86 192-192h96c17.6 0 32-14.4 32-32v-64c0-17.6-14.4-32-32-32zM320 928c-53 0-96-43-96-96s43-96 96-96 96 43 96 96-43 96-96 96z m640 0c-53 0-96-43-96-96s43-96 96-96 96 43 96 96-43 96-96 96z m160-416H832V288h88.2L1120 487.8V512z" p-id="2852"></path></svg>