<?xml version="1.0" standalone="no"?><!DOCTYPE svg PUBLIC "-//W3C//DTD SVG 1.1//EN" "http://www.w3.org/Graphics/SVG/1.1/DTD/svg11.dtd"><svg t="1617159876468" class="icon" viewBox="0 0 1024 1024" version="1.1" xmlns="http://www.w3.org/2000/svg" p-id="1734" xmlns:xlink="http://www.w3.org/1999/xlink" width="90" height="90"><defs><style type="text/css"></style></defs><path d="M96 896a32 32 0 0 1 0-64h832a32 32 0 0 1 0 64z" p-id="1735"></path><path d="M576 832V224a32 32 0 0 0-32-32H224a32 32 0 0 0-32 32v608z m32 64H160a32 32 0 0 1-32-32V224a96 96 0 0 1 96-96h320a96 96 0 0 1 96 96v640a32 32 0 0 1-32 32z" p-id="1736"></path><path d="M832 832V384a32 32 0 0 0-32-32h-160v480z m32 64h-256a32 32 0 0 1-32-32V320a32 32 0 0 1 32-32h192a96 96 0 0 1 96 96v480a32 32 0 0 1-32 32zM288 352a32 32 0 0 1 0-64h192a32 32 0 0 1 0 64zM288 512a32 32 0 0 1 0-64h192a32 32 0 0 1 0 64zM288 672a32 32 0 0 1 0-64h192a32 32 0 0 1 0 64z" p-id="1737"></path><path d="M704 512a32 32 0 0 1 0-64h32a32 32 0 0 1 0 64zM704 672a32 32 0 0 1 0-64h32a32 32 0 0 1 0 64z" p-id="1738"></path></svg>