<?xml version="1.0" encoding="UTF-8"?>
<svg width="46px" height="46px" viewBox="0 0 46 46" version="1.1" xmlns="http://www.w3.org/2000/svg" xmlns:xlink="http://www.w3.org/1999/xlink">
    <title>编组 35</title>
    <g id="首页33333333" stroke="none" stroke-width="1" fill="none" fill-rule="evenodd">
        <g id="首页" transform="translate(-941.000000, -8883.000000)">
            <g id="编组-26" transform="translate(130.000000, 8823.000000)">
                <g id="编组-35" transform="translate(811.000000, 60.000000)">
                    <circle id="椭圆形" stroke="#DDDDDD" cx="23" cy="23" r="22.5"></circle>
                    <path d="M32.4935031,26.6923557 C32.0537763,24.0126165 30.207331,22.2568304 30.207331,22.2568304 C30.4713028,19.8238911 29.5036324,19.392163 29.5036324,19.392163 C29.3007338,11.8651068 23.1296297,11.9971001 23.0000189,12.0005374 C22.870408,11.9971001 16.6986254,11.8651067 16.4964053,19.3928504 C16.4964053,19.3928504 15.5287349,19.8245786 15.7927067,22.2575178 C15.7927067,22.2575178 13.9462614,24.0133039 13.5065346,26.6930432 C13.5065346,26.6930432 13.2717422,31.2206888 15.6169517,27.2478276 C15.6169517,27.2478276 16.1448953,28.7568137 17.1118871,30.112495 C17.1118871,30.112495 15.3821594,30.7284638 15.5294136,32.3302576 C15.5294136,32.3302576 15.4703762,34.1162922 19.2229829,33.9939234 C19.2229829,33.9939234 21.860665,33.7787468 22.6525804,32.6079936 L23.3501717,32.6079936 C24.1414084,33.7787468 26.7797692,33.9939234 26.7797692,33.9939234 C30.5310187,34.1169797 30.4726599,32.3302576 30.4726599,32.3302576 C30.6185569,30.7291512 28.8901864,30.112495 28.8901864,30.112495 C29.8571781,28.7568137 30.3851217,27.2478276 30.3851217,27.2478276 C32.7276169,31.2206888 32.4935031,26.6923557 32.4935031,26.6923557 L32.4935031,26.6923557 Z" id="路径" fill="#AAAAAA" fill-rule="nonzero"></path>
                </g>
            </g>
        </g>
    </g>
</svg>